<?xml version="1.0" encoding="UTF-8"?>
<!DOCTYPE svg PUBLIC "-//W3C//DTD SVG 1.1//EN" "http://www.w3.org/Graphics/SVG/1.1/DTD/svg11.dtd">
<!-- Creator: CorelDRAW X8 -->
<svg xmlns="http://www.w3.org/2000/svg" xml:space="preserve" width="2in" height="2in" version="1.1" style="shape-rendering:geometricPrecision; text-rendering:geometricPrecision; image-rendering:optimizeQuality; fill-rule:evenodd; clip-rule:evenodd"
viewBox="0 0 2000 2000"
 xmlns:xlink="http://www.w3.org/1999/xlink">
 <defs>
  <style type="text/css">
   <![CDATA[
    .fil0 {fill:black}
    .fil1 {fill:#FEFEFE;fill-rule:nonzero}
   ]]>
  </style>
 </defs>
 <g id="Camada_x0020_1">
  <metadata id="CorelCorpID_0Corel-Layer"/>
  <circle class="fil0" cx="999" cy="994" r="950"/>
  <path class="fil1" d="M760 1438c0,51 -13,90 -41,117 -28,27 -67,40 -119,40l-86 0 0 -308 95 0c48,0 85,13 112,39 26,27 39,64 39,112zm-38 1c0,-40 -10,-70 -30,-91 -20,-20 -50,-30 -90,-30l-52 0 0 246 44 0c43,0 75,-11 96,-32 22,-21 32,-52 32,-93z"/>
  <path id="1" class="fil1" d="M1015 1595l-39 -98 -124 0 -37 98 -37 0 122 -310 30 0 122 310 -37 0zm-50 -130l-36 -96c-5,-12 -9,-27 -14,-44 -3,13 -8,28 -14,44l-36 96 100 0z"/>
  <polygon id="2" class="fil1" points="1147,1441 1229,1287 1268,1287 1165,1475 1165,1595 1129,1595 1129,1477 1026,1287 1065,1287 "/>
  <path id="3" class="fil1" d="M1484 1513c0,27 -10,48 -29,64 -20,15 -47,22 -80,22 -37,0 -65,-4 -85,-14l0 -34c13,5 27,9 41,12 15,3 30,5 45,5 24,0 42,-5 54,-14 12,-9 18,-21 18,-38 0,-10 -2,-19 -6,-26 -5,-7 -12,-13 -22,-19 -10,-5 -25,-12 -46,-19 -29,-11 -49,-23 -61,-37 -13,-14 -19,-32 -19,-55 0,-24 9,-43 27,-57 18,-14 41,-21 71,-21 31,0 59,6 84,17l-11 31c-25,-10 -50,-16 -74,-16 -19,0 -34,4 -45,12 -10,9 -16,20 -16,35 0,10 2,19 6,26 4,7 11,13 20,19 10,5 24,12 43,18 33,12 55,24 67,38 12,13 18,30 18,51z"/>
  <path class="fil1" d="M1257 1202l-529 0 0 -111 190 -191c56,-58 93,-98 110,-120 17,-22 30,-43 37,-62 8,-19 12,-38 12,-59 0,-30 -9,-53 -25,-67 -17,-15 -39,-23 -67,-23 -30,0 -58,7 -85,21 -28,13 -57,32 -87,57l-87 -103c37,-32 68,-54 93,-67 24,-13 51,-23 80,-30 29,-7 61,-11 97,-11 47,0 89,9 125,26 37,17 65,41 84,72 21,31 30,67 30,107 0,34 -6,67 -18,98 -12,30 -31,61 -57,93 -25,32 -71,78 -136,137l-97 92 0 7 330 0 0 134z"/>
 </g>
</svg>
