<?xml version="1.0" encoding="UTF-8"?>
<!DOCTYPE svg PUBLIC "-//W3C//DTD SVG 1.1//EN" "http://www.w3.org/Graphics/SVG/1.1/DTD/svg11.dtd">
<!-- Creator: CorelDRAW X8 -->
<svg xmlns="http://www.w3.org/2000/svg" xml:space="preserve" width="2in" height="2in" version="1.1" style="shape-rendering:geometricPrecision; text-rendering:geometricPrecision; image-rendering:optimizeQuality; fill-rule:evenodd; clip-rule:evenodd"
viewBox="0 0 2000 2000"
 xmlns:xlink="http://www.w3.org/1999/xlink">
 <defs>
  <style type="text/css">
   <![CDATA[
    .fil1 {fill:#FEFEFE}
    .fil2 {fill:black}
    .fil0 {fill:black}
   ]]>
  </style>
 </defs>
 <g id="Camada_x0020_1">
  <metadata id="CorelCorpID_0Corel-Layer"/>
  <circle class="fil0" cx="999" cy="994" r="950"/>
  <g id="_932999456">
   <circle class="fil1" cx="1016" cy="1043" r="607"/>
   <g>
    <path class="fil2" d="M1075 1024c0,-40 -33,-73 -73,-73 -41,0 -74,33 -74,73 0,41 33,74 74,74 40,0 73,-33 73,-74z"/>
    <path class="fil2" d="M1570 789c-96,-231 -319,-381 -569,-381 -81,0 -161,16 -236,48 -314,130 -464,491 -334,805 96,231 320,381 570,381 81,0 160,-16 236,-47 152,-63 270,-182 333,-334 63,-152 63,-320 0,-472zm-40 453l-333 -169 -91 -16c-2,7 -5,13 -8,19l76 54 354 116c-29,69 -70,131 -121,182l-243 -283 -79 -50c-4,5 -9,10 -14,15l50 78 283 243c-52,51 -113,93 -183,122l-115 -355 -54 -76c-6,3 -12,6 -19,8l16 92 169 332c-69,28 -141,43 -215,43l28 -372 -20 -91c-3,1 -7,1 -10,1 -4,0 -7,0 -10,-1l-21 91 29 372c-75,0 -148,-15 -215,-43l169 -332 16 -92c-7,-2 -13,-5 -19,-8l-54 76 -116 355c-68,-29 -130,-70 -182,-122l283 -243 50 -78c-5,-5 -10,-10 -15,-15l-78 50 -243 283c-51,-51 -93,-113 -122,-182l355 -116 76 -54c-3,-6 -6,-12 -8,-19l-92 16 -332 169c-29,-70 -43,-143 -43,-215l372 29 91 -21c-1,-3 -1,-6 -1,-10 0,-3 0,-7 1,-10l-91 -20 -372 28c0,-74 15,-147 43,-215l333 169 91 16c2,-7 5,-13 8,-19l-76 -54 -355 -115c29,-68 70,-130 122,-183l243 283 78 50c5,-5 10,-10 15,-14l-50 -79 -283 -243c51,-50 112,-92 182,-122l116 355 54 76c6,-3 12,-6 19,-8l-16 -91 -169 -333c69,-28 141,-43 215,-43l-29 372 21 91c3,0 6,-1 10,-1 3,0 7,1 10,1l20 -91 -28 -372c75,0 148,16 215,43l-169 333 -16 91c7,2 13,5 19,8l54 -76 115 -355c69,29 131,70 183,123l-283 242 -50 79c5,4 10,9 14,14l79 -50 242 -283c52,51 93,113 122,183l-354 115 -76 54c3,6 6,12 8,19l91 -16 333 -169c28,69 43,142 43,215l-372 -28 -91 20c0,3 1,7 1,10 0,4 -1,7 -1,10l91 21 372 -29c0,73 -15,146 -43,215z"/>
   </g>
   <path class="fil2" d="M1648 1024c0,-360 -292,-652 -652,-652 -359,0 -651,292 -651,652 0,360 292,651 651,651 360,0 652,-291 652,-651zm-652 569c-314,0 -569,-255 -569,-569 0,-315 255,-569 569,-569 315,0 569,254 569,569 0,314 -254,569 -569,569z"/>
  </g>
 </g>
</svg>
