<?xml version="1.0" encoding="UTF-8"?>
<!DOCTYPE svg PUBLIC "-//W3C//DTD SVG 1.1//EN" "http://www.w3.org/Graphics/SVG/1.1/DTD/svg11.dtd">
<!-- Creator: CorelDRAW X8 -->
<svg xmlns="http://www.w3.org/2000/svg" xml:space="preserve" width="2in" height="2in" version="1.1" style="shape-rendering:geometricPrecision; text-rendering:geometricPrecision; image-rendering:optimizeQuality; fill-rule:evenodd; clip-rule:evenodd"
viewBox="0 0 2000 2000"
 xmlns:xlink="http://www.w3.org/1999/xlink">
 <defs>
  <style type="text/css">
   <![CDATA[
    .str0 {stroke:black;stroke-width:13.8898}
    .fil1 {fill:#FEFEFE}
    .fil0 {fill:#FFC400}
   ]]>
  </style>
 </defs>
 <g id="Camada_x0020_1">
  <metadata id="CorelCorpID_0Corel-Layer"/>
  <path class="fil0" d="M1780 221l-1552 0c-47,0 -85,37 -85,78l0 1417c0,44 38,80 85,80l1552 0c47,0 85,-36 85,-80l0 -1417c0,-41 -38,-78 -85,-78z"/>
  <path class="fil1 str0" d="M1216 1093c8,0 60,-18 68,-23 -2,-9 -7,-16 -12,-25 -4,-8 -8,-17 -12,-26 -23,-49 -50,-99 -74,-150l-49 -100c-26,-50 -65,-39 -86,-1 -5,9 -7,16 -12,25 -4,8 -8,15 -13,25l-125 248c-17,32 -88,178 -104,195 -26,29 -84,16 -118,3 -65,-26 -89,-56 -120,-104 -40,-61 -42,-170 -1,-240 9,-16 21,-33 32,-44 34,-32 46,-41 91,-58 58,-23 136,-18 208,-17 53,0 55,-37 40,-54 -9,-10 -13,-10 -28,-10 -62,1 -162,-5 -214,11 -113,32 -186,106 -218,231 -20,80 5,173 50,237 19,27 46,59 74,75 55,32 103,55 171,54 26,0 38,-6 58,-17 33,-19 42,-50 62,-88 35,-69 66,-136 98,-202 8,-16 16,-33 24,-49 4,-9 9,-17 13,-26l36 -76c9,-17 16,-40 30,-47 14,4 17,16 20,27 3,10 103,203 111,226z"/>
  <path class="fil1 str0" d="M1284 1070c-8,5 -60,23 -68,23 -3,3 0,2 -7,4 -4,2 -5,2 -9,3l-11 2c-6,7 -38,15 -50,19 -18,7 -37,11 -55,17 -17,5 -106,27 -113,32l50 79c9,14 42,71 50,78l51 -34c-1,-25 -30,-78 -30,-101 29,-13 60,-23 89,-37 9,-4 19,-12 29,-12 2,-3 0,-2 3,-4 4,-2 2,-1 5,-2 4,-3 9,-6 16,-7 5,-6 7,-5 15,-9 6,-3 11,-6 16,-8 11,-7 21,-14 33,-17l207 -117c5,-3 10,-6 15,-9 7,-3 11,-3 13,-11 -11,3 -46,23 -59,29l-124 57c-21,7 -47,20 -66,25z"/>
  <path class="fil1 str0" d="M1234 1130c3,10 11,23 15,33 6,12 11,22 16,34l65 132c7,12 19,15 36,15 62,0 52,0 19,-70 -25,-52 -68,-132 -87,-178 -12,3 -22,10 -33,17 -5,2 -10,5 -16,8 -8,4 -10,3 -15,9z"/>
 </g>
</svg>
