<?xml version="1.0" encoding="UTF-8"?>
<!DOCTYPE svg PUBLIC "-//W3C//DTD SVG 1.1//EN" "http://www.w3.org/Graphics/SVG/1.1/DTD/svg11.dtd">
<!-- Creator: CorelDRAW X8 -->
<svg xmlns="http://www.w3.org/2000/svg" xml:space="preserve" width="2in" height="2in" version="1.1" style="shape-rendering:geometricPrecision; text-rendering:geometricPrecision; image-rendering:optimizeQuality; fill-rule:evenodd; clip-rule:evenodd"
viewBox="0 0 2000 2000"
 xmlns:xlink="http://www.w3.org/1999/xlink"
 data-name="Layer 1"
 enable-background="new 0 0 100 100">
 <defs>
  <style type="text/css">
   <![CDATA[
    .str0 {stroke:black;stroke-width:13.8898}
    .str1 {stroke:black;stroke-width:22.1417}
    .fil2 {fill:black}
    .fil1 {fill:#FEFEFE}
    .fil0 {fill:#FFC400}
   ]]>
  </style>
 </defs>
 <g id="Camada_x0020_1">
  <metadata id="CorelCorpID_0Corel-Layer"/>
  <path class="fil0" d="M1780 221l-1552 0c-47,0 -85,37 -85,78l0 1417c0,44 38,80 85,80l1552 0c47,0 85,-36 85,-80l0 -1417c0,-41 -38,-78 -85,-78z"/>
  <path class="fil1 str0" d="M591 551l841 0c30,0 54,24 54,54l0 841c0,30 -24,54 -54,54l-841 0c-30,0 -54,-24 -54,-54l0 -841c0,-30 24,-54 54,-54z"/>
  <path class="fil2 str1" d="M1029 1020c-85,0 -153,-68 -153,-153 0,-84 68,-152 153,-152 84,0 154,68 154,152 0,85 -70,153 -154,153z"/>
  <path class="fil2 str1" d="M799 1328l458 0c-6,-149 -105,-263 -229,-263 -124,0 -223,114 -229,263l0 0z"/>
 </g>
</svg>
